<?xml version="1.0" encoding="utf-8"?>
<!-- Generator: Adobe Illustrator 16.0.0, SVG Export Plug-In . SVG Version: 6.00 Build 0)  -->
<!DOCTYPE svg PUBLIC "-//W3C//DTD SVG 1.1//EN" "http://www.w3.org/Graphics/SVG/1.1/DTD/svg11.dtd">
<svg version="1.1" id="Livello_1" xmlns="http://www.w3.org/2000/svg" xmlns:xlink="http://www.w3.org/1999/xlink" x="0px" y="0px"
	 width="372.4px" height="445.1px" viewBox="0 0 372.4 445.1" style="enable-background:new 0 0 372.4 445.1;" xml:space="preserve"
	>
<style type="text/css">
<![CDATA[
	.st0{display:inline;fill:#2BA9E0;}
	.st1{fill:#2BA9E0;}
	.st2{fill:#FFFFFF;}
	.st3{display:inline;}
	.st4{display:none;}
]]>
</style>
<g transform="translate(24, 214)" class="st4">
	<g>
		<path class="st0" d="M-9.9,144.7c-18.2,0-32.9,14.7-32.9,32.9c0,18.1,14.7,32.9,32.9,32.9c18.2,0,32.9-14.7,32.9-32.9
			C23,159.5,8.3,144.7-9.9,144.7z"/>
	</g>
	<g>
		<path class="st0" d="M31,138.5c9.7,10.2,15.7,23.9,15.7,39.2c0,19.2-9.6,36.2-24.3,46.5c27.1-8.4,49.6-28.8,59.6-53.4
			c13.9-34.2,1-59.9-20.8-83.2c0.7,3,1.1,6.2,1.1,9.4C62.3,116.6,49.1,133.3,31,138.5z"/>
	</g>
	<g>
		<path class="st0" d="M-6.1,96.8C-6.1,110.8,5.2,122,19,122c13.8,0,25.2-11.3,25.2-25.2C44.2,83,32.9,71.7,19,71.7
			C5.1,71.7-6.1,83-6.1,96.8z"/>
	</g>
	<g class="st3">
		<path class="st1" d="M-53.1,214.1c-8.3-9.9,107.9-2,107.9-15.9c0-29,13.7-43.5,41.8-46.8c-4.8-7,2.9-47.5,2.9-56.6
			c0-16.8-9.2-17.2-20.2-24c-5.7-3.5-10-4.5-10-4.5c2,0-0.4-9.5,1.5-9.2C57.6,45.6,17.6,11.5,1.6-3C0.4-4-12.4,3.2-13.2,2.3
			c3.3,34-21.6,59.4-41.7,69.2c-2.5,1.2-5,2.5-7.5,3.9c-0.8,0.4-1.5,0.9-2.3,1.3c-12,7.1-24.5,19.8-31.9,38.2
			C-111.4,151.6-92.2,190.3-53.1,214.1L-53.1,214.1z"/>
	</g>
</g>
<g transform="translate(24, 214)" class="st4">
	<g>
		<path class="st0" d="M56.9-85.7c14.8-3.6,23.8-18.5,20.2-33.3c-3.6-14.8-18.5-23.8-33.2-20.2c-14.8,3.6-23.8,18.5-20.2,33.3
			C27.2-91.1,42.1-82.1,56.9-85.7z"/>
	</g>
	<g>
		<path class="st0" d="M24.9-72.4c-9.9-6.3-17.5-16.4-20.6-28.7c-3.8-15.6,0.6-31.4,10.5-42.6C-5.6-131.6-19.7-110.5-23-88.5
			C-27.5-58-11.9-39.6,10.4-25c-1.1-2.3-2.1-4.8-2.7-7.4C3.7-48.5,11.2-64.6,24.9-72.4z"/>
	</g>
	<g>
		<path class="st0" d="M63.3-46c-2.8-11.3-14.2-18.2-25.4-15.5C26.6-58.7,19.7-47.3,22.4-36c2.8,11.3,14.1,18.2,25.4,15.5
			C59.2-23.3,66.1-34.7,63.3-46z"/>
	</g>
	<g class="st3">
		<path class="st1" d="M17.4-132c8.7,6.4-30.9,21.9-28.2,33.2c5.8,23.6,22.2,46.2,0,54.5c5.3,4.7,32.5,16.1,34.3,23.5
			c4.7,19.4,35,12,15.5,16.8c-1.6,0.4,9.1-1.1,7.5-0.9c12.9,6.6,11.8,24.8,23,32.7c0.9,0.6,15.8-10.1,16.6-9.5
			C74.7-15.1,119-33.1,136-51.7c7-7.6,11.6-17.3,13.7-31.5c4.8-32.8-35.5-52.3-72-63.9L17.4-132z"/>
	</g>
</g>
<g>
	<g>
		<path class="st2" d="M127.2,140.4c20.5-61.5,72.5-81.5,121.1-71c-4.3-3.3-8.7-6.5-13.1-9.8C214.1,44.2,193.1,28.1,175.1,0
			c2.3,63.5-8.1,78.5-67.3,106.9C43.5,137.7,0,173.9,0,251c0,46.3,16,88.7,42.6,122.1c-2.4-12-1.7-25.1,3-39.1
			c11-33,42.7-66.8,78.7-54.8c14.5,4.8,22.3,14.6,23,39.3c-32.5-9.1-48.9,13.7-54.6,30.7c-12,36,18.2,65.4,44.1,74
			c30.5,10.1,60.9-6.4,75.5-50.3C249.4,261.5,88.7,256.3,127.2,140.4z M329.4,147c-0.1,7.2-1.3,14.9-4.1,23.3
			c-8.8,26.5-25.9,38-43.9,32c-9-3-13.8-8.5-18-17.6c11.1-3.5,21.3-15.7,25.9-29.6c7.6-23,1.3-52.3-32.2-63.4
			c-35-11.6-62.9,9-74,42.5c-32.2,96.9,139,110.6,94.7,243.9c-10.1,30.4-26.1,50.8-45.2,63.4c83.5-15.4,139.9-78.5,139.9-171.2
			C372.4,222.1,356.1,182.2,329.4,147z"/>
	</g>
</g>
<text transform="matrix(1 0 0 1 1067.7773 537.5454)" style="font-family:'PoiretOne-Regular'; font-size:100;">solutions</text>
</svg>
